<svg width="30" height="30" viewBox="0 0 30 30" fill="none" xmlns="http://www.w3.org/2000/svg">
<path d="M15.0001 2.5C21.8876 2.5 27.5001 8.1125 27.5001 15C27.5001 21.9 21.8876 27.5 15.0001 27.5L14.6505 27.4951C7.912 27.3097 2.50012 21.7831 2.50012 15C2.50012 8.1125 8.10012 2.5 15.0001 2.5ZM13.2003 9.72461C12.9504 9.72461 12.713 9.81263 12.5255 10C12.163 10.375 12.1623 10.9627 12.5372 11.3252L16.2247 15L12.5372 18.6748C12.1623 19.0373 12.163 19.6375 12.5255 20C12.9005 20.3747 13.4873 20.3747 13.8497 20L18.213 15.6621C18.3878 15.4871 18.4874 15.2498 18.4874 15C18.4874 14.7502 18.3878 14.5129 18.213 14.3379L13.8497 10C13.6748 9.81269 13.4377 9.72466 13.2003 9.72461Z" fill="#9EADD9"/>
</svg>
