<svg width="82" height="82" viewBox="0 0 82 82" fill="none" xmlns="http://www.w3.org/2000/svg">
<g clip-path="url(#clip0_16_150)">
<rect width="80" height="80" rx="32" fill="#EAF2FF"/>
<path d="M10 65.7624C10 56.9258 17.1634 49.7624 26 49.7624H54C62.8366 49.7624 70 56.9258 70 65.7624V93.7624C70 102.599 62.8366 109.762 54 109.762H26C17.1634 109.762 10 102.599 10 93.7624V65.7624Z" fill="#B4DBFF"/>
<circle cx="40" cy="28" r="16" fill="#B4DBFF"/>
</g>
<rect x="57.5" y="58" width="24" height="24" rx="12" fill="#006FFD"/>
<mask id="mask0_16_150" style="mask-type:alpha" maskUnits="userSpaceOnUse" x="65" y="65" width="9" height="10">
<path d="M67.8923 73.5869L72.059 69.4201L70.0799 67.441L65.9131 71.6078C65.8558 71.6652 65.815 71.7371 65.7952 71.8158L65.3334 74.1667L67.6838 73.7048C67.7627 73.6851 67.8349 73.6443 67.8923 73.5869ZM73.4042 68.075C73.5723 67.9069 73.6667 67.6788 73.6667 67.441C73.6667 67.2032 73.5723 66.9752 73.4042 66.807L72.693 66.0959C72.5249 65.9278 72.2968 65.8333 72.059 65.8333C71.8212 65.8333 71.5932 65.9278 71.425 66.0959L70.7139 66.807L72.693 68.7861L73.4042 68.075Z" fill="#006FFD"/>
</mask>
<g mask="url(#mask0_16_150)">
<rect x="64.5" y="65" width="10" height="10" fill="white"/>
</g>
<defs>
<clipPath id="clip0_16_150">
<rect width="80" height="80" rx="32" fill="white"/>
</clipPath>
</defs>
</svg>
