<svg width="200" height="200" viewBox="0 0 200 200" fill="none" xmlns="http://www.w3.org/2000/svg">
<path d="M188.511 15.7448H11.4894C6.8087 15.7448 3.40417 19.149 3.40417 23.4044V191.915C3.40417 196.171 6.8083 200 11.0638 200H188.511C192.766 200 196.17 196.596 196.17 191.915V23.4044C196.596 19.149 193.192 15.7448 188.511 15.7448Z" fill="#E14A4A"/>
<path d="M192.34 15.7448C131.064 15.7448 69.3615 15.7448 8.08485 15.7448C3.40412 15.7448 0 19.149 0 23.4044C0 42.9786 0 62.5532 0 81.7022C0 85.9576 3.40412 91.064 7.65958 92.7659C67.2339 114.894 132.766 114.894 192.34 92.7659C196.596 91.0636 200 86.3829 200 81.7022C200 62.1276 200 42.5534 200 23.4044C200 19.149 196.596 15.7448 192.34 15.7448Z" fill="#F16D6E"/>
<path d="M72.766 74.0426H38.7235V85.532H72.766V74.0426Z" fill="#E14A4A"/>
<path d="M164.255 74.0426H130.213V85.532H164.255V74.0426Z" fill="#E14A4A"/>
<path d="M65.9574 79.149H45.5319V200H65.9574V79.149Z" fill="#FEC656"/>
<path d="M35.7448 121.277V150.213H76.1702V121.277H35.7448ZM68.0853 144.681H43.83V127.234H68.0853V144.681Z" fill="#F6F7F8"/>
<path d="M66.8086 41.702H43.8299C35.7447 41.702 28.9364 34.8934 28.9364 26.8085V14.8935C28.936 6.80865 35.7447 0 43.8299 0H66.8086C74.8935 0 81.7021 6.80865 81.7021 14.8935V26.8085C81.7021 34.8938 74.8935 41.702 66.8086 41.702Z" fill="#3A5569"/>
<path d="M156.17 41.702H133.192C125.106 41.702 118.298 34.8934 118.298 26.8085V14.8935C118.298 6.80865 125.106 0 133.192 0H156.17C164.255 0 171.064 6.80865 171.064 14.8935V26.8085C171.064 34.8938 164.681 41.702 156.17 41.702Z" fill="#3A5569"/>
<path d="M157.447 79.149H137.021V200H157.447V79.149Z" fill="#FEC656"/>
<path d="M127.234 121.277V150.213H167.659V121.277H127.234ZM159.149 144.681H134.894V127.234H159.149V144.681Z" fill="#F6F7F8"/>
</svg>
