<svg width="40" height="40" viewBox="0 0 40 40" fill="none" xmlns="http://www.w3.org/2000/svg">
<path fill-rule="evenodd" clip-rule="evenodd" d="M10.3088 23.6754C-0.410351 11.5302 4.94922 7.89915 5.42347 7.30888C10.538 2.12167 11.3313 4.48274 15.3493 8.56096C18.7342 12.0131 14.3461 13.6587 16.1444 17.7548L10.3088 23.6754Z" fill="#ADAAAA"/>
<path fill-rule="evenodd" clip-rule="evenodd" d="M20.1506 22.304C25.6176 26.7936 27.1595 20.3722 31.0319 24.3073C35.027 28.3855 37.3242 29.2083 32.2585 34.3776C31.6627 34.8963 27.8254 40.7811 14.6661 27.9026L20.1506 22.304Z" fill="#ADAAAA"/>
<path opacity="0.4" d="M35.6248 6.43217V6.44911L19.9311 22.5251L5.74069 37.0765C5.45986 37.3475 5.11294 37.5 4.74951 37.5C4.38608 37.5 4.03917 37.3475 3.74181 37.0765C3.27926 36.5852 3.21318 35.8568 3.52706 35.3147L3.57662 35.247C3.60965 35.1944 3.64269 35.1453 3.69225 35.0945L33.6259 4.38244C33.8737 4.1114 34.2371 3.94031 34.6171 3.94031C34.997 3.94031 35.3604 4.1114 35.6248 4.38244C36.1699 4.9584 36.1699 5.85621 35.6248 6.43217Z" fill="#ADAAAA"/>
</svg>
