<svg width="30" height="30" viewBox="0 0 30 30" fill="none" xmlns="http://www.w3.org/2000/svg">
<path d="M16.25 5C19.7612 5 21.5172 5.00012 22.7783 5.84277C23.324 6.20744 23.7926 6.67602 24.1572 7.22168C24.9999 8.4828 25 10.2388 25 13.75C25 17.2612 24.9999 19.0172 24.1572 20.2783C23.7926 20.824 23.324 21.2926 22.7783 21.6572C21.6766 22.3934 20.1971 22.4853 17.5 22.4971V22.5L15.8945 25.7109C15.526 26.448 14.474 26.448 14.1055 25.7109L12.5 22.5V22.4971C9.80288 22.4853 8.32337 22.3934 7.22168 21.6572C6.67602 21.2926 6.20744 20.824 5.84277 20.2783C5.00012 19.0172 5 17.2612 5 13.75C5 10.2388 5.00012 8.4828 5.84277 7.22168C6.20744 6.67602 6.67602 6.20744 7.22168 5.84277C8.4828 5.00012 10.2388 5 13.75 5H16.25Z" fill="white"/>
<path d="M10.625 11.875H19.375" stroke="#222222" stroke-linecap="round" stroke-linejoin="round"/>
<path d="M10.625 15.625H16.875" stroke="#222222" stroke-linecap="round" stroke-linejoin="round"/>
</svg>
