<svg width="200" height="200" viewBox="0 0 200 200" fill="none" xmlns="http://www.w3.org/2000/svg">
<path fill-rule="evenodd" clip-rule="evenodd" d="M109.056 178.231L113.573 170.598C117.077 164.678 118.829 161.718 121.643 160.082C124.457 158.445 128 158.384 135.087 158.263C145.548 158.082 152.109 157.441 157.612 155.162C167.822 150.933 175.932 142.822 180.162 132.612C183.333 124.955 183.333 115.248 183.333 95.8333V87.5C183.333 60.2214 183.333 46.5821 177.193 36.5626C173.757 30.9561 169.044 26.2423 163.437 22.8067C153.417 16.6667 139.778 16.6667 112.5 16.6667H87.5C60.2214 16.6667 46.582 16.6667 36.5625 22.8067C30.956 26.2423 26.2423 30.9561 22.8066 36.5626C16.6666 46.5821 16.6666 60.2214 16.6666 87.5V95.8333C16.6666 115.248 16.6666 124.955 19.8383 132.612C24.0672 142.822 32.1786 150.933 42.3881 155.162C47.8907 157.441 54.4518 158.082 64.9131 158.263C71.9993 158.384 75.5424 158.445 78.3565 160.082C81.1707 161.719 82.9227 164.678 86.4266 170.598L90.9441 178.231C94.9708 185.033 105.029 185.033 109.056 178.231ZM129.419 70.5806C131.86 73.0213 131.86 76.9787 129.419 79.4194L96.0858 112.753C93.6808 115.158 89.7925 115.198 87.3383 112.842L70.6716 96.8417C68.1815 94.4517 68.1008 90.495 70.4913 88.005C72.8818 85.515 76.8382 85.4342 79.3283 87.825L91.5775 99.5842L120.581 70.5806C123.022 68.1398 126.978 68.1398 129.419 70.5806Z" fill="#1C274C"/>
</svg>
