<svg width="30" height="30" viewBox="0 0 30 30" fill="none" xmlns="http://www.w3.org/2000/svg">
<path d="M17.5 6.25C20.7873 6.25 22.4308 6.25037 23.5371 7.1582C23.7396 7.32442 23.9256 7.51035 24.0918 7.71289C24.9996 8.81924 25 10.4627 25 13.75C25 17.0373 24.9996 18.6808 24.0918 19.7871C23.9256 19.9896 23.7396 20.1756 23.5371 20.3418C22.4308 21.2496 20.7873 21.25 17.5 21.25H10.2071C10.1049 21.25 10.0538 21.25 10.0079 21.269C9.96194 21.2881 9.92581 21.3242 9.85355 21.3964L6.70703 24.543C6.07709 25.1728 5.00012 24.7267 5 23.8359V14.25C5 10.4788 5.0003 8.59345 6.17188 7.42188C7.34345 6.2503 9.22876 6.25 13 6.25H17.5Z" fill="#9EADD9"/>
<path d="M10.625 11.875H19.375" stroke="#222222" stroke-linecap="round" stroke-linejoin="round"/>
<path d="M10.625 15.625H16.875" stroke="#222222" stroke-linecap="round" stroke-linejoin="round"/>
</svg>
