<svg width="200" height="200" viewBox="0 0 200 200" fill="none" xmlns="http://www.w3.org/2000/svg">
<g clip-path="url(#clip0_20_552)">
<path d="M83.0509 184.746H116.949V150.848H83.0509V184.746ZM83.0509 116.949H164.407C160.678 116.949 157.627 120 157.627 123.729V150.848H116.949H83.0509V116.949ZM144.068 198.305H76.2711C80.0001 198.305 83.0509 195.254 83.0509 191.525V184.746H116.949L130.508 184.745C144.068 184.746 144.068 198.305 144.068 198.305Z" fill="#ECF4F7"/>
<path d="M83.0509 184.746V191.526C83.0509 195.255 80.0001 198.305 76.2711 198.305H8.47444C4.7455 198.305 1.69466 195.255 1.69466 191.526V96.6101C1.69466 92.8812 4.7455 89.8303 8.47444 89.8303H76.2711C80.0001 89.8303 83.0509 92.8812 83.0509 96.6101V116.949V150.847V184.746Z" fill="#FFE079"/>
<path d="M198.305 123.729V191.526C198.305 195.255 195.254 198.305 191.525 198.305H164.406C160.677 198.305 157.627 195.255 157.627 191.526V150.848V123.729C157.627 120 160.677 116.949 164.406 116.949H191.525C195.254 116.949 198.305 120 198.305 123.729Z" fill="#7EE1E6"/>
<path d="M198.305 15.2542V123.729C198.305 120 195.254 116.949 191.525 116.949H164.406H83.0505V96.6101C83.0505 92.8812 79.9997 89.8303 76.2707 89.8303H8.47444C4.7455 89.8303 1.69466 92.8812 1.69466 96.6101V15.2542C1.69466 7.79674 7.79635 1.69505 15.2538 1.69505H184.745C192.203 1.69505 198.305 7.79674 198.305 15.2542Z" fill="#AAB1BA"/>
<path d="M99.9998 130.508C102.034 130.508 103.389 132.203 103.389 133.898C103.389 135.593 102.034 137.288 99.9998 137.288C97.9659 137.288 96.6101 135.593 96.6101 133.898C96.6101 132.203 97.9659 130.508 99.9998 130.508ZM177.966 184.746C180 184.746 181.356 186.441 181.356 188.135C181.356 189.831 180 191.525 177.966 191.525C175.932 191.525 174.576 189.83 174.576 188.135C174.576 186.44 175.932 184.746 177.966 184.746ZM42.373 184.746C44.068 184.746 45.7627 186.441 45.7627 188.135C45.7627 189.831 44.0676 191.525 42.373 191.525C40.6779 191.525 38.9833 189.83 38.9833 188.135C38.9829 186.44 40.6779 184.746 42.373 184.746Z" fill="#AAB1BA"/>
<path d="M191.525 200H164.406C159.661 200 155.932 196.271 155.932 191.526V123.729C155.932 118.983 159.661 115.254 164.406 115.254H191.525C196.271 115.254 200 118.983 200 123.729V191.526C200 196.271 196.271 200 191.525 200ZM164.407 118.644C161.695 118.644 159.322 121.017 159.322 123.729V191.526C159.322 194.238 161.695 196.61 164.407 196.61H191.526C194.238 196.61 196.61 194.238 196.61 191.526V123.729C196.61 121.017 194.238 118.644 191.526 118.644H164.407ZM144.068 200H96.6101C95.5932 200 94.9151 199.322 94.9151 198.305C94.9151 197.288 95.5932 196.61 96.6101 196.61H142.373C142.034 193.22 139.661 186.44 130.508 186.44H116.949C115.932 186.44 115.254 185.762 115.254 184.745V164.406C115.254 163.389 115.932 162.711 116.949 162.711C117.966 162.711 118.644 163.389 118.644 164.406V183.051H130.509C142.712 183.051 145.763 192.881 145.763 198.305C145.762 199.322 145.085 200 144.068 200ZM76.2711 200H8.47444C3.72894 200 0 196.271 0 191.525V96.6101C0 91.8642 3.72894 88.1357 8.47444 88.1357H76.2711C81.017 88.1357 84.7456 91.8646 84.7456 96.6101V191.525C84.7456 196.271 81.017 200 76.2711 200ZM8.47444 91.5254C5.76244 91.5254 3.3897 93.8981 3.3897 96.6101V191.525C3.3897 194.237 5.76244 196.61 8.47444 196.61H76.2711C78.9831 196.61 81.3559 194.237 81.3559 191.525V96.6101C81.3559 93.8981 78.9831 91.5254 76.2711 91.5254H8.47444ZM177.966 193.22C175.254 193.22 172.881 190.847 172.881 188.135C172.881 185.423 175.254 183.051 177.966 183.051C180.678 183.051 183.051 185.423 183.051 188.135C183.051 190.847 180.678 193.22 177.966 193.22ZM177.966 186.44C176.949 186.44 176.271 187.119 176.271 188.135C176.271 189.152 176.949 189.831 177.966 189.831C178.983 189.831 179.661 189.152 179.661 188.135C179.661 187.119 178.983 186.44 177.966 186.44ZM42.373 193.22C39.661 193.22 37.2882 190.847 37.2882 188.135C37.2882 185.423 39.661 183.051 42.373 183.051C45.085 183.051 47.4577 185.423 47.4577 188.135C47.4577 190.847 45.0846 193.22 42.373 193.22ZM42.373 186.44C41.356 186.44 40.6779 187.119 40.6779 188.135C40.6779 189.152 41.356 189.831 42.373 189.831C43.3899 189.831 44.068 189.152 44.068 188.135C44.0676 187.119 43.3899 186.44 42.373 186.44ZM103.39 186.44H96.6101C95.5932 186.44 94.9151 185.762 94.9151 184.745C94.9151 183.728 95.5932 183.05 96.6101 183.05H103.39C104.407 183.05 105.085 183.728 105.085 184.745C105.085 185.763 104.407 186.44 103.39 186.44ZM144.068 152.542H96.6101C95.5932 152.542 94.9151 151.864 94.9151 150.847C94.9151 149.83 95.5932 149.152 96.6101 149.152H144.068C145.085 149.152 145.763 149.83 145.763 150.847C145.762 151.864 145.085 152.542 144.068 152.542ZM99.9998 138.983C97.2878 138.983 94.9151 136.61 94.9151 133.898C94.9151 131.186 97.2878 128.814 99.9998 128.814C102.712 128.814 105.085 131.186 105.085 133.898C105.085 136.61 102.712 138.983 99.9998 138.983ZM99.9998 132.203C98.9828 132.203 98.3048 132.881 98.3048 133.898C98.3048 134.915 98.9828 135.593 99.9998 135.593C101.017 135.593 101.695 134.915 101.695 133.898C101.695 132.881 101.017 132.203 99.9998 132.203ZM144.068 118.644H96.6101C95.5932 118.644 94.9151 117.966 94.9151 116.949C94.9151 115.932 95.5932 115.254 96.6101 115.254H144.068C145.085 115.254 145.763 115.932 145.763 116.949C145.762 117.966 145.085 118.644 144.068 118.644ZM198.305 105.085C197.288 105.085 196.61 104.406 196.61 103.389V15.2542C196.61 8.81369 191.186 3.3897 184.745 3.3897H15.2542C8.81369 3.3897 3.3897 8.81369 3.3897 15.2542V76.2711C3.3897 77.2881 2.7116 77.9662 1.69465 77.9662C0.677701 77.9662 0 77.2881 0 76.2711V15.2542C0 6.77979 6.77979 0 15.2542 0H184.746C193.22 0 200 6.77979 200 15.2542V103.39C200 104.407 199.322 105.085 198.305 105.085ZM177.966 50.8474C177.627 50.8474 176.949 50.8474 176.61 50.5086L149.491 23.3898C149.153 23.051 149.153 22.7117 149.153 22.034C149.153 21.3559 149.153 21.0171 149.491 20.6782C150.17 20.0001 151.186 20.0001 151.864 20.6782L178.983 47.797C179.322 48.1358 179.322 48.4751 179.322 49.1528C179.322 49.8309 179.322 50.1697 178.983 50.5086C178.644 50.8474 178.305 50.8474 177.966 50.8474ZM177.966 30.5085C177.627 30.5085 176.949 30.5085 176.61 30.1696L169.83 23.3898C169.492 23.051 169.492 22.7117 169.492 22.034C169.492 21.3559 169.492 21.0171 169.83 20.6782C170.508 20.0001 171.525 20.0001 172.203 20.6782L178.983 27.4576C179.322 27.7965 179.322 28.1357 179.322 28.8134C179.322 29.4915 179.322 29.8304 178.983 30.1692C178.644 30.5085 178.305 30.5085 177.966 30.5085Z" fill="#51565F"/>
</g>
<defs>
<clipPath id="clip0_20_552">
<rect width="200" height="200" fill="white"/>
</clipPath>
</defs>
</svg>
