<svg width="40" height="40" viewBox="0 0 40 40" fill="none" xmlns="http://www.w3.org/2000/svg">
<path d="M25.1868 9.42383C25.6115 9.46914 25.95 9.66385 26.2191 9.86914C26.5034 10.0861 26.8081 10.3937 27.1214 10.707L29.2933 12.8789C29.6065 13.1921 29.9143 13.497 30.1312 13.7812C30.3656 14.0886 30.5862 14.4865 30.5862 15C30.5862 15.5135 30.3656 15.9114 30.1312 16.2188C29.9143 16.503 29.6065 16.8079 29.2933 17.1211L16.0989 30.3154C15.9418 30.4725 15.7376 30.6886 15.4739 30.8379C15.2104 30.987 14.9208 31.0506 14.7054 31.1045L9.38409 32.4346C9.23623 32.4715 9.01484 32.5298 8.82062 32.5488C8.61395 32.569 8.16202 32.5756 7.79327 32.207C7.42458 31.8383 7.43127 31.3864 7.45148 31.1797C7.47049 30.9854 7.52876 30.7631 7.56573 30.6152L8.89581 25.2949C8.9497 25.0794 9.01311 24.7891 9.16241 24.5254C9.31172 24.2618 9.52782 24.0584 9.68488 23.9014L22.8782 10.707C23.1915 10.3938 23.4963 10.0861 23.7806 9.86914C24.088 9.63461 24.4866 9.41406 25.0003 9.41406L25.1868 9.42383Z" stroke="#33363F" stroke-width="2"/>
<path d="M20.8333 12.5001L25.8333 9.16675L30.8333 14.1667L27.5 19.1667L20.8333 12.5001Z" fill="#33363F"/>
</svg>
