<svg width="30" height="30" viewBox="0 0 30 30" fill="none" xmlns="http://www.w3.org/2000/svg">
<path d="M15.25 9.25C15.25 9.69313 15.2482 10.126 15.2959 10.4805C15.3474 10.8637 15.4727 11.3008 15.8359 11.6641L15.9756 11.79C16.3077 12.0578 16.6844 12.159 17.0195 12.2041C17.374 12.2518 17.8069 12.25 18.25 12.25H25V20C25 23.5355 24.9997 25.303 23.9014 26.4014C22.803 27.4997 21.0355 27.5 17.5 27.5H12.5C8.96447 27.5 7.19698 27.4997 6.09863 26.4014C5.00028 25.303 5 23.5355 5 20V10C5 6.46447 5.00028 4.69698 6.09863 3.59863C7.19698 2.50028 8.96447 2.5 12.5 2.5H15.25V9.25ZM11.25 20.25C10.6977 20.25 10.25 20.6977 10.25 21.25C10.25 21.8023 10.6977 22.25 11.25 22.25H16.25C16.8023 22.25 17.25 21.8023 17.25 21.25C17.25 20.6977 16.8023 20.25 16.25 20.25H11.25ZM11.25 15.25C10.6977 15.25 10.25 15.6977 10.25 16.25C10.25 16.8023 10.6977 17.25 11.25 17.25H18.75C19.3023 17.25 19.75 16.8023 19.75 16.25C19.75 15.6977 19.3023 15.25 18.75 15.25H11.25ZM17.25 2.50195C17.9092 2.50838 18.3063 2.53944 18.6709 2.69043C19.1303 2.88073 19.4923 3.24227 20.2148 3.96484L23.5352 7.28516C24.2577 8.00773 24.6193 8.36967 24.8096 8.8291C24.9606 9.19373 24.9906 9.59076 24.9971 10.25H18.25C17.7505 10.25 17.4763 10.2482 17.2861 10.2227C17.2835 10.2223 17.2808 10.2211 17.2783 10.2207C17.278 10.2185 17.2776 10.2161 17.2773 10.2139C17.2518 10.0237 17.25 9.7495 17.25 9.25V2.50195Z" fill="#ADAAAA"/>
</svg>
