<svg width="80" height="80" viewBox="0 0 80 80" fill="none" xmlns="http://www.w3.org/2000/svg">
<path d="M48.3333 61.668H14.0667C13.2266 61.668 12.8066 61.668 12.4857 61.5045C12.2034 61.3607 11.974 61.1312 11.8302 60.849C11.6667 60.5281 11.6667 60.1081 11.6667 59.268V17.4C11.6667 16.5599 11.6667 16.1399 11.8302 15.819C11.974 15.5368 12.2034 15.3073 12.4857 15.1635C12.8066 15 13.2266 15 14.0667 15H30.639C31.0148 15 31.2026 15 31.3731 15.0518C31.5241 15.0976 31.6645 15.1728 31.7864 15.273C31.9241 15.3861 32.0283 15.5425 32.2366 15.8551L37.7634 24.1463C37.9718 24.4589 38.0759 24.6152 38.2136 24.7284C38.3355 24.8285 38.4759 24.9037 38.6269 24.9495C38.7974 25.0013 38.9853 25.0013 39.361 25.0013H59.2667C60.1067 25.0013 60.5268 25.0013 60.8477 25.1648C61.1299 25.3086 61.3594 25.5381 61.5032 25.8204C61.6667 26.1412 61.6667 26.5613 61.6667 27.4013V35" stroke="#3C3C43" stroke-opacity="0.29" stroke-linecap="round"/>
<path d="M66.67 33.333C67.7942 33.333 68.3567 33.333 68.7257 33.5684C69.0486 33.7743 69.2808 34.0963 69.3741 34.4678C69.4807 34.8922 69.3028 35.4258 68.9474 36.4922L60.547 61.6924C60.3503 62.2824 60.2519 62.5778 60.0695 62.7959C59.9084 62.9884 59.7015 63.1376 59.4679 63.2295C59.2033 63.3335 58.8923 63.333 58.2706 63.333H12.2198C11.4706 63.333 11.0957 63.3335 10.8497 63.1768C10.6345 63.0395 10.4793 62.8248 10.4171 62.5771C10.3461 62.2942 10.4653 61.9385 10.7023 61.2275L19.4532 34.9746C19.6499 34.3845 19.7484 34.0892 19.9308 33.8711C20.0919 33.6786 20.2987 33.5294 20.5323 33.4375C20.7969 33.3335 21.1079 33.333 21.7296 33.333H66.67ZM28.3331 47.833C28.0572 47.8331 27.8333 48.0571 27.8331 48.333C27.8331 48.6091 28.0571 48.8329 28.3331 48.833H51.6661L51.7677 48.8232C51.9954 48.7765 52.1661 48.5745 52.1661 48.333C52.1659 48.0917 51.9952 47.8895 51.7677 47.8428L51.6661 47.833H28.3331Z" fill="#1B1F26" fill-opacity="0.72"/>
</svg>
