<svg width="43" height="43" viewBox="0 0 43 43" fill="none" xmlns="http://www.w3.org/2000/svg">
<path d="M40.0437 21.9327C40.0437 20.6535 39.9389 19.3688 39.7185 18.1111H21.8735V25.3539H32.0914C31.8806 26.513 31.4368 27.6172 30.7868 28.5997C30.1369 29.5823 29.2943 30.4227 28.3101 31.0702V35.7733H34.408C37.9878 32.4946 40.0437 27.6571 40.0437 21.9327Z" fill="#4285F4"/>
<path d="M21.8763 40.3125C26.9772 40.3125 31.2799 38.6463 34.4135 35.7706L28.3182 31.0702C26.6224 32.2178 24.4321 32.8681 21.8817 32.8681C16.9474 32.8681 12.763 29.5571 11.2607 25.1066H4.97192V29.9522C6.55647 33.073 8.97518 35.6934 11.9593 37.5223C14.9435 39.3513 18.3763 40.3171 21.8763 40.3125Z" fill="#34A853"/>
<path d="M11.2525 25.1067C10.46 22.7712 10.46 20.2396 11.2525 17.9042V13.0586H4.96913C3.64593 15.6777 2.95654 18.571 2.95654 21.5054C2.95654 24.4398 3.64593 27.3331 4.96913 29.9522L11.2525 25.1067Z" fill="#FBBC04"/>
<path d="M21.8763 10.1319C24.5709 10.0882 27.1755 11.1011 29.1325 12.9538L34.5344 7.58145C31.1013 4.38349 26.5678 2.63168 21.8763 2.6902C18.3753 2.68577 14.9417 3.65254 11.9573 5.48301C8.97299 7.31347 6.55488 9.93588 4.97192 13.0586L11.2499 17.8988C12.7442 13.4429 16.9367 10.1319 21.8709 10.1319H21.8763Z" fill="#EA4335"/>
</svg>
