<svg width="30" height="30" viewBox="0 0 30 30" fill="none" xmlns="http://www.w3.org/2000/svg">
<path d="M14.9363 18.1749C10.6238 18.1749 6.98511 18.8796 6.98511 21.5993C6.98511 24.3201 10.6473 25 14.9363 25C19.2488 25 22.8875 24.2953 22.8875 21.5757C22.8875 18.8548 19.2253 18.1749 14.9363 18.1749Z" fill="white"/>
<path opacity="0.4" d="M14.9363 15.5838C17.8564 15.5838 20.1979 13.2288 20.1979 10.2919C20.1979 7.35383 17.8564 5 14.9363 5C12.0162 5 9.67468 7.35383 9.67468 10.2919C9.67468 13.2288 12.0162 15.5838 14.9363 15.5838Z" fill="white"/>
<path opacity="0.4" d="M26.36 11.524C27.1155 8.5522 24.9005 5.88318 22.0799 5.88318C21.7733 5.88318 21.48 5.91695 21.1935 5.97436C21.1554 5.98337 21.1129 6.0025 21.0905 6.03627C21.0648 6.07905 21.0838 6.13646 21.1118 6.17361C21.9591 7.3691 22.4459 8.82462 22.4459 10.3871C22.4459 11.8843 21.9993 13.2801 21.2159 14.4385C21.1353 14.5578 21.2069 14.7188 21.3491 14.7435C21.5461 14.7784 21.7475 14.7964 21.9535 14.8021C24.0073 14.8561 25.8507 13.5266 26.36 11.524Z" fill="white"/>
<path d="M28.5116 18.5212C28.1356 17.7152 27.2279 17.1625 25.8478 16.8912C25.1964 16.7313 23.4336 16.5062 21.7939 16.5366C21.7693 16.54 21.7558 16.5569 21.7536 16.5681C21.7502 16.5839 21.7569 16.6109 21.7894 16.6278C22.5471 17.0049 25.4762 18.645 25.108 22.1043C25.0923 22.254 25.2121 22.3835 25.3609 22.3609C26.0817 22.2574 27.9363 21.8566 28.5116 20.6082C28.8295 19.9486 28.8295 19.182 28.5116 18.5212Z" fill="white"/>
<path opacity="0.4" d="M8.80598 5.97473C8.52057 5.91619 8.22621 5.88354 7.91953 5.88354C5.09901 5.88354 2.88401 8.55257 3.64062 11.5244C4.14877 13.527 5.99218 14.8565 8.04601 14.8024C8.25195 14.7968 8.45453 14.7777 8.6504 14.7439C8.79255 14.7191 8.86418 14.5582 8.78359 14.4388C8.00012 13.2794 7.55353 11.8846 7.55353 10.3875C7.55353 8.82386 8.04153 7.36834 8.8888 6.17397C8.91567 6.13683 8.93581 6.07942 8.90895 6.03664C8.88657 6.00174 8.84515 5.98373 8.80598 5.97473Z" fill="white"/>
<path d="M4.15194 16.8909C2.7719 17.1622 1.86531 17.7149 1.48924 18.5209C1.17025 19.1817 1.17025 19.9483 1.48924 20.609C2.06454 21.8563 3.91914 22.2582 4.63994 22.3606C4.7888 22.3831 4.90744 22.2548 4.89177 22.104C4.52354 18.6458 7.45262 17.0057 8.21148 16.6286C8.24281 16.6106 8.24953 16.5847 8.24617 16.5678C8.24393 16.5565 8.23162 16.5397 8.207 16.5374C6.56617 16.5059 4.80447 16.731 4.15194 16.8909Z" fill="white"/>
</svg>
