<svg width="30" height="30" viewBox="0 0 30 30" fill="none" xmlns="http://www.w3.org/2000/svg">
<path d="M4.375 19.3748L7.07227 16.6775C8.9647 14.7851 9.9113 13.8386 10.9531 14.0388C11.9952 14.2395 12.5227 15.4701 13.5771 17.9304L13.8359 18.5349C14.3632 19.7651 14.6274 20.3799 15.1484 20.4802C15.6694 20.5804 16.1426 20.1072 17.0889 19.1609L17.2656 18.9851C18.5078 17.743 19.1287 17.121 19.8955 17.0808C19.9649 17.0772 20.0351 17.0772 20.1045 17.0808C20.8713 17.121 21.4922 17.743 22.7344 18.9851L23.6738 19.9246C23.8253 20.0761 23.9017 20.1512 23.9785 20.2205C24.6605 20.8353 25.5332 21.1974 26.4502 21.2449C26.5535 21.2502 26.6607 21.2498 26.875 21.2498V4.41968C27.5002 5.62262 27.5 7.441 27.5 10.4998V19.4998C27.5 23.271 27.4997 25.1573 26.3281 26.3289C25.1565 27.5001 23.2709 27.4998 19.5 27.4998H10.5C6.72913 27.4998 4.84347 27.5001 3.67188 26.3289C2.5003 25.1573 2.5 23.271 2.5 19.4998V10.4998C2.5 6.72872 2.50033 4.84317 3.67188 3.67163C3.88113 3.4624 4.11351 3.29131 4.375 3.15015V19.3748Z" fill="#ADAAAA"/>
<path d="M10.5 3.5H19.5C21.4139 3.5 22.7487 3.50229 23.7559 3.6377C24.7342 3.76923 25.2521 4.00989 25.6211 4.37891C25.9901 4.74792 26.2308 5.2658 26.3623 6.24414C26.4977 7.25127 26.5 8.58611 26.5 10.5V19.5C26.5 21.4139 26.4977 22.7487 26.3623 23.7559C26.2308 24.7342 25.9901 25.2521 25.6211 25.6211C25.2521 25.9901 24.7342 26.2308 23.7559 26.3623C22.7487 26.4977 21.4139 26.5 19.5 26.5H10.5C8.58611 26.5 7.25127 26.4977 6.24414 26.3623C5.2658 26.2308 4.74792 25.9901 4.37891 25.6211C4.00989 25.2521 3.76923 24.7342 3.6377 23.7559C3.50229 22.7487 3.5 21.4139 3.5 19.5V10.5C3.5 8.58611 3.50229 7.25127 3.6377 6.24414C3.76923 5.2658 4.00989 4.74792 4.37891 4.37891C4.74792 4.00989 5.2658 3.76923 6.24414 3.6377C7.25127 3.50229 8.58611 3.5 10.5 3.5Z" stroke="#ADAAAA" stroke-width="2"/>
<circle cx="18.75" cy="11.25" r="2.5" fill="#ADAAAA"/>
</svg>
