<svg width="200" height="200" viewBox="0 0 200 200" fill="none" xmlns="http://www.w3.org/2000/svg">
<path d="M163.627 67.2395V154.647H55.3176V38.2648H132.4L163.627 67.2395Z" fill="#FCE3C3"/>
<path d="M163.627 156.99H55.3176L52.9738 154.647V38.2648L55.3176 35.9211H132.4L133.994 36.5467L165.221 65.5213L165.97 67.2395V154.647L163.627 156.99ZM57.6613 152.303H161.283V68.2619L131.48 40.6086H57.6613V152.303Z" fill="#300604"/>
<path d="M132.4 38.2648V67.2393H163.627L132.4 38.2648Z" fill="#ED8F27"/>
<path d="M163.627 69.5832H132.4L130.056 67.2394V38.2648L133.994 36.5467L165.221 65.5213L163.627 69.5832ZM134.744 64.8957H157.655L134.744 43.6369V64.8957ZM124.701 88.5404H151.354V94.5295H124.701V88.5404ZM124.701 101.795H151.354V107.784H124.701V101.795Z" fill="#300604"/>
<path d="M27.1424 83.0588H96.0174V170.53H27.1424V83.0588Z" fill="#B12800"/>
<path d="M96.0174 172.873H27.1424L24.7986 170.53V83.0588L27.1424 80.715H96.0176L98.3613 83.0588V170.53L96.0174 172.873ZM29.4861 168.186H93.6738V85.4025H29.4861V168.186Z" fill="#300604"/>
<path d="M36.5602 93.6055H86.1006V104.789H36.5602V93.6055Z" fill="#300604"/>
<path d="M62.0182 136.178H85.4436V161.872H62.0182V136.178Z" fill="#228E9D"/>
<path d="M37.0345 111.56H60.4599V137.254H37.0345V111.56Z" fill="#FCE3C3"/>
<path d="M37.0345 137.169H60.4599V162.864H37.0345V137.169ZM62.0181 112.208H85.4435V137.903H62.0181V112.208Z" fill="#ED8F27"/>
<path d="M96.0174 170.53H27.1424V83.0588H96.0174C96.0179 83.0588 96.0184 83.059 96.0188 83.0593C96.0191 83.0597 96.0193 83.0602 96.0193 83.0607V170.528C96.0193 170.529 96.0184 170.53 96.0174 170.53ZM30.1399 86.0562V167.532H93.0217V86.0562H30.1399Z" fill="#300604"/>
<path d="M87.5994 162.601H35.5612V110.562H87.5994V162.601ZM38.5588 159.603H84.602V113.559H38.5588V159.603ZM87.5994 106.491H35.5612V92.7812H87.5994V106.491ZM38.5588 103.493H84.602V95.7787H38.5588V103.493Z" fill="#300604"/>
<path d="M37.0599 135.082H86.1006V138.08H37.0599V135.082Z" fill="#300604"/>
<path d="M60.0811 112.06H63.0785V161.102H60.0811V112.06ZM42.2803 123.196H55.2139V126.193H42.2803V123.196Z" fill="#300604"/>
<path d="M47.2478 118.228H50.2453V131.162H47.2478V118.228ZM45.242 143.721L54.3881 152.867L52.2689 154.986L43.1224 145.84L45.242 143.721Z" fill="#300604"/>
<path d="M52.2613 143.717L54.3805 145.836L45.2344 154.982L43.1152 152.863L52.2613 143.717ZM67.5398 123.196H80.4756V126.193H67.5398V123.196ZM67.5398 144.494H80.4756V147.491H67.5398V144.494ZM67.5398 150.579H80.4756V153.577H67.5398V150.579Z" fill="#300604"/>
<path d="M130.502 129.845H138.272V135.663H130.502V129.845Z" fill="#300604"/>
<path d="M145.838 129.845H150.418V135.663H145.838V129.845Z" fill="#300604"/>
<path d="M119.777 129.845H124.356V135.663H119.777V129.845Z" fill="#300604"/>
<path d="M69.6494 54.1943H90.1494V60.0127H69.6494V54.1943Z" fill="#300604"/>
<path d="M95.6506 54.1943H102.552V60.0127H95.6506V54.1943Z" fill="#300604"/>
</svg>
