<svg width="24" height="24" viewBox="0 0 24 24" fill="none" xmlns="http://www.w3.org/2000/svg">
<path d="M12.0001 2C17.5101 2 22.0001 6.49 22.0001 12C22.0001 17.52 17.5101 22 12.0001 22L11.7208 21.9961C6.33001 21.8478 2.00012 17.4264 2.00012 12C2.00012 6.49 6.48012 2 12.0001 2ZM10.5597 7.78027C10.3598 7.78037 10.1695 7.85011 10.0197 8C9.7299 8.29999 9.73055 8.76964 10.0304 9.05957L12.9806 12L10.0304 14.9404C9.73055 15.2304 9.72991 15.71 10.0197 16C10.3197 16.3 10.7902 16.3 11.0802 16L14.5704 12.5303C14.7104 12.3903 14.7902 12.2 14.7902 12C14.7902 11.8 14.7104 11.6097 14.5704 11.4697L11.0802 8C10.9402 7.85 10.7497 7.78027 10.5597 7.78027Z" fill="white"/>
</svg>
