<svg width="25" height="24" viewBox="0 0 25 24" fill="none" xmlns="http://www.w3.org/2000/svg">
<path opacity="0.4" d="M22.3768 11.9999C22.3768 17.5239 17.9134 21.9999 12.4072 21.9999C6.90101 21.9999 2.43762 17.5239 2.43762 11.9999C2.43762 6.47788 6.90101 1.99988 12.4072 1.99988C17.9134 1.99988 22.3768 6.47788 22.3768 11.9999Z" fill="#4169E1"/>
<path d="M15.9701 15.8144C15.8395 15.8144 15.7079 15.7804 15.5873 15.7094L11.6732 13.3674C11.4479 13.2314 11.3093 12.9864 11.3093 12.7224V7.67542C11.3093 7.26142 11.6443 6.92542 12.057 6.92542C12.4698 6.92542 12.8048 7.26142 12.8048 7.67542V12.2964L16.3539 14.4194C16.7079 14.6324 16.8245 15.0924 16.6132 15.4484C16.4726 15.6834 16.2243 15.8144 15.9701 15.8144Z" fill="#4169E1"/>
</svg>
