<svg width="30" height="30" viewBox="0 0 30 30" fill="none" xmlns="http://www.w3.org/2000/svg">
<path opacity="0.4" d="M26.6638 9.30319C26.14 8.97324 25.4963 8.94406 24.9475 9.22324L23.095 10.1585C22.41 10.5037 21.985 11.2017 21.985 11.9783V19.2702C21.985 20.0468 22.41 20.7435 23.095 21.0913L24.9463 22.0253C25.1975 22.1547 25.4663 22.2169 25.735 22.2169C26.0575 22.2169 26.3775 22.1255 26.6638 21.9466C27.1875 21.6179 27.5 21.0481 27.5 20.4238V10.8273C27.5 10.2029 27.1875 9.63314 26.6638 9.30319Z" fill="white"/>
<path d="M14.8814 25H7.6413C4.61377 25 2.5 22.9124 2.5 19.9239V11.3261C2.5 8.33629 4.61377 6.25 7.6413 6.25H14.8814C17.9089 6.25 20.0227 8.33629 20.0227 11.3261V19.9239C20.0227 22.9124 17.9089 25 14.8814 25Z" fill="white"/>
</svg>
