<svg width="200" height="200" viewBox="0 0 200 200" fill="none" xmlns="http://www.w3.org/2000/svg">
<path d="M124.138 160.345H75.8621L72.4137 191.379H127.586L124.138 160.345Z" fill="#5B5D6E"/>
<path d="M125.287 170.69L124.138 160.345H75.8621L74.7125 170.69H125.287Z" fill="#464655"/>
<path d="M193.104 163.793H6.89648C3.0875 163.793 0 160.705 0 156.896V32.7586C0 28.9496 3.0875 25.8621 6.89648 25.8621H193.104C196.913 25.8621 200 28.9496 200 32.7586V156.896C200 160.705 196.913 163.793 193.104 163.793Z" fill="#707487"/>
<path d="M76.1363 25.8621C77.8137 37.5551 87.8434 46.5519 100 46.5519C112.157 46.5519 122.187 37.5555 123.864 25.8621H76.1363Z" fill="#5B5D6E"/>
<path d="M186.207 153.448H13.793C11.8887 153.448 10.3445 151.904 10.3445 150V39.6551C10.3445 37.7508 11.8887 36.2066 13.793 36.2066H186.207C188.111 36.2066 189.655 37.7508 189.655 39.6551V150C189.655 151.904 188.111 153.448 186.207 153.448Z" fill="#E4EAF8"/>
<path d="M189.655 94.8277H113.793V36.207H186.207C188.111 36.207 189.655 37.7512 189.655 39.6555V94.8277H189.655Z" fill="#7DF5A5"/>
<path d="M189.655 94.8277H113.793V153.448H186.207C188.111 153.448 189.655 151.904 189.655 150V94.8277H189.655Z" fill="#00C3FF"/>
<path d="M113.793 153.448H13.793C11.8887 153.448 10.3445 151.904 10.3445 150V39.6551C10.3445 37.7508 11.8887 36.2066 13.793 36.2066H113.793V153.448Z" fill="#FFDC64"/>
<path d="M134.483 194.828H65.5172C63.6113 194.828 62.0688 193.286 62.0688 191.379C62.0688 189.473 63.6109 187.931 65.5172 187.931H134.483C136.389 187.931 137.931 189.473 137.931 191.379C137.931 193.286 136.389 194.828 134.483 194.828Z" fill="#707487"/>
<path d="M93.1035 153.448V144.626C93.1035 141.658 91.2039 139.022 88.3879 138.084L77.1297 134.331C74.3137 133.392 72.4141 130.757 72.4141 127.788V118.966H51.7242V127.788C51.7242 130.757 49.8246 133.392 47.0086 134.331L35.7504 138.084C32.9336 139.022 31.034 141.658 31.034 144.626V153.448H93.1035Z" fill="#D29B6E"/>
<path d="M88.3879 138.083L77.1297 134.33C76.4535 134.105 75.8375 133.771 75.2805 133.369C72.1176 137.178 67.4062 139.655 62.0687 139.655C56.7312 139.655 52.0199 137.178 48.8574 133.369C48.3004 133.771 47.6848 134.105 47.0082 134.33L35.75 138.083C32.9336 139.022 31.034 141.657 31.034 144.626V153.448H93.1031V144.626C93.1035 141.657 91.2039 139.022 88.3879 138.083Z" fill="#959CB5"/>
<path d="M62.0692 77.5863C69.6868 77.5863 75.8621 72.1828 75.8621 65.5172C75.8621 58.8516 69.6868 53.448 62.0692 53.448C54.4515 53.448 48.2762 58.8516 48.2762 65.5172C48.2762 72.1828 54.4515 77.5863 62.0692 77.5863Z" fill="#694B4B"/>
<path d="M62.0691 115.517C77.3047 115.517 89.6555 103.938 89.6555 89.6551C89.6555 75.3718 77.3047 63.793 62.0691 63.793C46.8336 63.793 34.4828 75.3718 34.4828 89.6551C34.4828 103.938 46.8336 115.517 62.0691 115.517Z" fill="#694B4B"/>
<path d="M68.7344 64.5848C66.5961 64.0863 64.3715 63.793 62.0688 63.793C46.8336 63.793 34.4824 75.3719 34.4824 89.6551C34.4824 101.92 43.5988 112.168 55.8188 114.825C55.8188 110.388 55.8188 103.785 55.8188 93.9656C55.8191 79.0277 63.0117 69.6801 68.7344 64.5848Z" fill="#5A4146"/>
<path d="M79.4574 117.168L68.2375 122.777C64.3543 124.719 59.7836 124.719 55.9004 122.777L44.6805 117.168C42.618 116.137 41.2078 114.143 40.9215 111.855L38.827 95.0996C38.5801 93.1246 40.041 91.3617 42.027 91.232C48.4543 90.8113 61.8578 89.198 70.1215 83.0105C71.5149 81.9672 73.4602 82.1508 74.6512 83.4207L84.2379 93.6449C84.9391 94.3926 85.2711 95.4141 85.1438 96.4312L83.2156 111.855C82.9305 114.143 81.5199 116.137 79.4574 117.168Z" fill="#F0C087"/>
<path d="M84.2383 93.6449L74.6512 83.4207C74.3332 83.0809 73.9547 82.8324 73.5539 82.6508C73.4223 82.5914 73.2793 82.5789 73.1422 82.5367C72.8637 82.4516 72.5836 82.3754 72.2945 82.3629C72.0476 82.3527 71.8023 82.3844 71.5578 82.4285C71.4336 82.4508 71.3074 82.452 71.1855 82.4879C70.8133 82.5996 70.4508 82.7645 70.1227 83.0102C61.8449 89.2078 48.4086 90.816 41.9945 91.234C39.9973 91.3641 38.5797 93.1137 38.8281 95.0996L40.9226 111.854C41.209 114.143 42.6191 116.136 44.6816 117.168L55.9016 122.777C57.5769 123.615 59.3855 124.019 61.2062 124.134L56.9941 115.709C55.7973 113.315 55.1738 110.675 55.1738 107.998V99.1172C55.1738 97.5121 56.2867 96.1496 57.8441 95.7602C62.5664 94.5797 67.4238 92.8527 71.6418 90.2926L79.2086 98.3629C80.3266 99.5555 81.9078 100.913 84.6016 100.783L85.1457 96.4309C85.2715 95.4137 84.9391 94.3926 84.2383 93.6449Z" fill="#E6AF78"/>
<path d="M162.069 137.931H141.379C137.57 137.931 134.483 141.018 134.483 144.827V153.448H168.966V144.827C168.966 141.018 165.878 137.931 162.069 137.931Z" fill="#FFDC64"/>
<path d="M151.724 143.104C148.868 143.104 146.552 140.787 146.552 137.931V132.759H156.897V137.931C156.896 140.787 154.58 143.104 151.724 143.104Z" fill="#D29B6E"/>
<path d="M152.316 136.207H151.133C149.304 136.207 147.55 135.48 146.256 134.187L143.4 131.33C142.106 130.037 141.38 128.283 141.38 126.454V115.517C141.38 111.708 144.467 108.621 148.276 108.621H155.173C158.982 108.621 162.069 111.708 162.069 115.517V126.454C162.069 128.283 161.343 130.037 160.049 131.33L157.193 134.187C155.899 135.48 154.145 136.207 152.316 136.207Z" fill="#F0C087"/>
<path d="M155.172 108.621H148.276C144.467 108.621 141.379 111.708 141.379 115.517V118.966C141.379 118.966 151.724 118.966 162.069 115.517C162.069 111.708 158.982 108.621 155.172 108.621Z" fill="#694B4B"/>
<path d="M162.069 79.3102H141.379C137.57 79.3102 134.483 82.3977 134.483 86.2066V94.8274H168.966V86.207C168.966 82.3977 165.878 79.3102 162.069 79.3102Z" fill="#707487"/>
<path d="M151.724 84.4828C148.868 84.4828 146.552 82.1668 146.552 79.3105V74.1383H156.897V79.3105C156.896 82.1668 154.58 84.4828 151.724 84.4828Z" fill="#D29B6E"/>
<path d="M152.316 77.5863H151.133C149.304 77.5863 147.55 76.8598 146.256 75.5664L143.4 72.7098C142.106 71.4164 141.38 69.6625 141.38 67.8332V56.8965C141.38 53.0875 144.467 50 148.276 50H155.173C158.982 50 162.069 53.0875 162.069 56.8965V67.8332C162.069 69.6621 161.343 71.4164 160.049 72.7098L157.193 75.5664C155.899 76.8594 154.145 77.5863 152.316 77.5863Z" fill="#F0C087"/>
<path d="M155.172 50H148.276C144.467 50 141.379 53.0875 141.379 56.8965V60.3449C141.379 60.3449 151.724 60.3449 162.069 56.8965C162.069 53.0875 158.982 50 155.172 50Z" fill="#694B4B"/>
<path d="M100 46.5516C105.137 46.5516 109.885 44.9312 113.793 42.1934V36.207H80.234C84.5887 42.4539 91.8047 46.5516 100 46.5516Z" fill="#FFC850"/>
<path d="M113.793 42.1934C116.119 40.5637 118.141 38.5379 119.766 36.2066H113.793V42.1934Z" fill="#64DCA0"/>
<path d="M100 39.6551C109.522 39.6551 117.241 31.9358 117.241 22.4137C117.241 12.8915 109.522 5.17227 100 5.17227C90.4778 5.17227 82.7586 12.8915 82.7586 22.4137C82.7586 31.9358 90.4778 39.6551 100 39.6551Z" fill="#959CB5"/>
<path d="M100 29.3101C103.809 29.3101 106.896 26.2225 106.896 22.4137C106.896 18.6048 103.809 15.5172 100 15.5172C96.1912 15.5172 93.1035 18.6048 93.1035 22.4137C93.1035 26.2225 96.1912 29.3101 100 29.3101Z" fill="#464655"/>
</svg>
